<?xml version="1.0" standalone="no"?>
<!DOCTYPE svg PUBLIC "-//W3C//DTD SVG 20010904//EN"
 "http://www.w3.org/TR/2001/REC-SVG-20010904/DTD/svg10.dtd">
<svg version="1.0" xmlns="http://www.w3.org/2000/svg"
 width="2550.000000pt" height="3300.000000pt" viewBox="0 0 2550.000000 3300.000000"
 preserveAspectRatio="xMidYMid meet">
<metadata>
Created by potrace 1.16, written by Peter Selinger 2001-2019
</metadata>
<g transform="translate(0.000000,3300.000000) scale(0.100000,-0.100000)"
fill="#000000" stroke="none">
<path d="M7390 32850 l0 -150 -575 0 c-504 0 -575 -2 -575 -15 0 -13 192 -15
1670 -15 1478 0 1670 2 1670 15 0 13 -71 15 -575 15 l-575 0 0 150 c0 93 -4
150 -10 150 -6 0 -10 -57 -10 -150 l0 -150 -500 0 -500 0 0 150 c0 93 -4 150
-10 150 -6 0 -10 -57 -10 -150z"/>
<path d="M3181 32971 c-9 -6 -10 -11 -2 -15 6 -4 11 -18 11 -32 0 -21 -5 -24
-35 -24 -39 0 -75 -28 -75 -60 0 -11 -4 -20 -10 -20 -5 0 -10 -7 -10 -15 0 -8
-4 -15 -10 -15 -5 0 -10 22 -10 50 0 44 -3 50 -24 56 -43 11 -81 1 -81 -21 0
-11 7 -20 15 -20 8 0 14 8 14 18 -2 23 39 19 44 -4 2 -11 -7 -18 -29 -23 -40
-8 -59 -23 -59 -47 0 -25 46 -44 75 -31 13 6 28 6 38 1 12 -7 22 -4 35 9 18
18 20 18 41 1 16 -13 35 -17 69 -15 67 5 67 5 54 18 -8 8 -12 46 -12 105 0 94
-5 105 -39 84z m-3 -93 c17 -17 15 -73 -3 -88 -19 -16 -52 -4 -58 21 -7 26 7
65 25 72 20 8 23 8 36 -5z m-172 -84 c-9 -22 -46 -18 -46 6 0 25 43 46 48 23
2 -8 1 -21 -2 -29z"/>
<path d="M3285 32960 c-8 -13 3 -30 20 -30 14 0 27 24 18 34 -10 9 -31 7 -38
-4z"/>
<path d="M4026 32925 c-4 -14 -13 -25 -21 -25 -8 0 -15 -4 -15 -10 0 -5 7 -10
15 -10 11 0 15 -12 15 -44 0 -62 36 -96 68 -64 7 7 12 23 11 38 l-1 25 -10
-28 c-15 -41 -33 -28 -36 26 -3 45 -2 47 22 47 15 0 26 5 26 10 0 6 -11 10
-25 10 -20 0 -25 5 -25 25 0 14 -4 25 -9 25 -5 0 -12 -11 -15 -25z"/>
<path d="M7470 32890 c-17 -31 -4 -37 21 -9 18 21 20 21 14 4 -4 -11 -9 -36
-12 -55 -6 -41 15 -66 48 -57 18 5 19 3 7 -11 -28 -37 -49 -42 -41 -11 5 17 2
20 -13 17 -11 -2 -19 -12 -19 -23 0 -16 8 -21 35 -23 48 -4 73 25 94 110 19
81 19 78 1 78 -8 0 -18 -17 -25 -42 -14 -56 -23 -72 -45 -77 -16 -3 -17 2 -11
35 14 73 13 79 -16 82 -19 2 -30 -3 -38 -18z"/>
<path d="M8060 32890 c-17 -31 -4 -37 21 -9 18 21 20 21 14 4 -4 -11 -9 -36
-12 -55 -6 -41 15 -66 48 -57 18 5 19 3 7 -11 -28 -37 -49 -42 -41 -11 5 17 2
20 -13 17 -11 -2 -19 -12 -19 -23 0 -16 8 -21 35 -23 48 -4 73 25 94 110 19
81 19 78 1 78 -8 0 -18 -17 -25 -42 -14 -56 -23 -72 -45 -77 -16 -3 -17 2 -11
35 14 73 13 79 -16 82 -19 2 -30 -3 -38 -18z"/>
<path d="M3270 32891 c0 -5 7 -11 15 -15 20 -7 21 -115 0 -142 -13 -17 -14
-17 -15 -1 0 9 -7 17 -16 17 -31 0 -10 -35 24 -38 27 -3 34 1 42 23 6 14 10
58 10 96 l0 69 -30 0 c-16 0 -30 -4 -30 -9z"/>
<path d="M3383 32884 c-3 -8 -1 -20 5 -26 14 -14 35 0 28 19 -4 10 0 14 16 11
37 -5 34 -34 -3 -42 -40 -8 -59 -23 -59 -47 0 -25 46 -44 75 -31 13 6 28 6 38
1 12 -7 22 -4 35 9 18 18 19 18 42 0 12 -10 30 -18 40 -18 22 0 68 36 58 45
-4 4 -14 0 -23 -9 -23 -23 -42 -20 -61 8 -13 22 -14 29 -2 53 15 31 48 44 48
19 0 -10 9 -16 21 -16 14 0 19 5 17 18 -2 13 -15 18 -50 20 -39 3 -49 -1 -62
-20 -9 -12 -16 -30 -16 -40 0 -10 -4 -18 -10 -18 -5 0 -10 -7 -10 -15 0 -8 -4
-15 -10 -15 -5 0 -10 22 -10 49 0 54 -8 61 -66 61 -22 0 -37 -6 -41 -16z m73
-90 c-9 -22 -46 -18 -46 6 0 25 43 46 48 23 2 -8 1 -21 -2 -29z"/>
<path d="M3697 32882 c-26 -29 -22 -77 9 -101 15 -12 35 -21 44 -21 22 0 68
36 58 45 -4 4 -14 0 -23 -9 -21 -21 -38 -20 -58 2 -26 28 -21 32 33 32 53 0
61 10 40 51 -14 26 -80 26 -103 1z m73 -7 c17 -21 9 -27 -31 -23 -31 3 -32 4
-15 21 21 21 30 21 46 2z"/>
<path d="M3830 32890 c0 -6 5 -10 10 -10 15 0 13 -97 -2 -103 -7 -3 7 -6 32
-6 35 0 41 2 28 10 -24 14 -23 64 2 89 12 12 25 18 30 15 15 -9 12 -102 -2
-108 -7 -3 7 -6 31 -6 38 -1 42 1 28 12 -10 7 -17 30 -19 62 l-3 50 -67 2
c-38 1 -68 -2 -68 -7z"/>
<path d="M735 32871 c-65 -27 -121 -178 -95 -256 14 -43 48 -55 85 -31 40 26
77 111 83 187 4 58 2 69 -17 88 -23 23 -26 24 -56 12z m40 -33 c3 -13 2 -41
-2 -63 -8 -37 -11 -40 -46 -43 -22 -2 -37 1 -37 8 0 18 30 83 47 102 21 24 31
23 38 -4z m-27 -162 c-14 -45 -51 -91 -66 -82 -13 8 -16 73 -6 100 4 11 19 16
44 16 l38 0 -10 -34z"/>
<path d="M7673 32873 c-26 -5 -31 -23 -8 -23 23 0 21 -97 -2 -103 -10 -3 5 -5
32 -5 28 0 42 2 33 5 -15 4 -18 16 -18 69 0 35 -3 63 -7 63 -5 -1 -18 -4 -30
-6z"/>
<path d="M8239 32863 c-22 -25 -18 -102 5 -119 46 -33 96 -1 96 61 0 43 -25
75 -59 75 -16 0 -35 -7 -42 -17z m66 -58 c0 -41 -3 -50 -19 -53 -24 -5 -36 14
-36 59 0 42 7 51 35 47 17 -3 20 -10 20 -53z"/>
<path d="M7810 32850 c0 -6 40 -10 100 -10 60 0 100 4 100 10 0 6 -40 10 -100
10 -60 0 -100 -4 -100 -10z"/>
<path d="M1428 32759 c-26 -15 -24 -59 3 -59 17 0 20 5 17 25 -4 20 -1 25 16
25 26 0 46 -18 46 -41 0 -11 -12 -18 -39 -23 -26 -4 -47 -15 -60 -32 -26 -33
-26 -39 -1 -64 23 -23 72 -26 90 -5 11 13 14 13 27 0 18 -19 28 -19 47 1 18
17 22 54 6 54 -5 0 -10 -9 -10 -20 0 -11 -4 -20 -10 -20 -6 0 -10 27 -10 60 0
51 -4 65 -25 85 -25 26 -67 32 -97 14z m80 -120 c-4 -38 -30 -59 -55 -43 -9 6
-18 15 -21 22 -5 16 35 52 59 52 17 0 20 -5 17 -31z"/>
<path d="M1618 32763 c-22 -5 -24 -23 -3 -23 12 0 15 -14 15 -70 0 -56 -3 -70
-15 -70 -8 0 -15 -4 -15 -10 0 -5 25 -10 55 -10 30 0 55 5 55 10 0 6 -9 10
-20 10 -18 0 -20 7 -20 58 0 56 16 101 27 75 8 -21 43 -16 43 6 0 28 -37 37
-61 15 -17 -16 -19 -16 -19 -1 0 17 -9 19 -42 10z"/>
<path d="M1793 32746 c-24 -21 -28 -32 -28 -74 0 -59 21 -89 70 -98 38 -7 70
7 86 37 17 33 0 36 -25 5 -33 -42 -71 -31 -87 24 -16 54 7 110 46 110 20 0 25
-5 25 -25 0 -18 5 -25 20 -25 26 0 27 31 2 53 -27 25 -76 21 -109 -7z"/>
<path d="M1983 32746 c-24 -21 -28 -32 -28 -74 0 -59 21 -89 70 -98 38 -7 70
7 86 37 17 33 0 36 -25 5 -33 -42 -71 -31 -87 24 -16 54 7 110 46 110 20 0 25
-5 25 -25 0 -18 5 -25 20 -25 26 0 27 31 2 53 -27 25 -76 21 -109 -7z"/>
<path d="M2159 32741 c-76 -76 3 -201 102 -161 72 30 77 140 8 176 -43 22 -77
17 -110 -15z m100 -4 c35 -43 18 -132 -27 -144 -51 -13 -84 81 -46 135 17 25
56 29 73 9z"/>
<path d="M2362 32754 c-24 -17 -29 -56 -9 -72 7 -6 31 -17 53 -24 31 -11 39
-18 39 -38 0 -20 -6 -26 -28 -28 -22 -3 -31 3 -45 27 -23 41 -32 39 -32 -6 l0
-38 48 -2 c56 -2 92 18 92 51 0 42 -11 55 -61 71 -36 12 -49 21 -47 33 2 12
14 17 38 17 29 0 36 -4 38 -22 5 -35 22 -27 22 10 0 33 -1 34 -43 35 -25 1
-52 -4 -65 -14z"/>
<path d="M5068 32759 c-26 -15 -24 -59 3 -59 17 0 20 5 17 25 -4 20 -1 25 16
25 26 0 46 -18 46 -41 0 -11 -12 -18 -39 -23 -26 -4 -47 -15 -60 -32 -26 -33
-26 -39 -1 -64 23 -23 72 -26 90 -5 11 13 14 13 27 0 18 -19 28 -19 47 1 18
17 22 54 6 54 -5 0 -10 -9 -10 -20 0 -11 -4 -20 -10 -20 -6 0 -10 27 -10 60 0
51 -4 65 -25 85 -25 26 -67 32 -97 14z m80 -120 c-4 -38 -30 -59 -55 -43 -9 6
-18 15 -21 22 -5 16 35 52 59 52 17 0 20 -5 17 -31z"/>
<path d="M5258 32763 c-22 -5 -24 -23 -3 -23 12 0 15 -14 15 -70 0 -56 -3 -70
-15 -70 -8 0 -15 -4 -15 -10 0 -5 25 -10 55 -10 30 0 55 5 55 10 0 6 -9 10
-20 10 -18 0 -20 7 -20 58 0 56 16 101 27 75 8 -21 43 -16 43 6 0 28 -37 37
-61 15 -17 -16 -19 -16 -19 -1 0 17 -9 19 -42 10z"/>
<path d="M5433 32746 c-24 -21 -28 -32 -28 -74 0 -59 21 -89 70 -98 38 -7 70
7 86 37 17 33 0 36 -25 5 -33 -42 -71 -31 -87 24 -16 54 7 110 46 110 20 0 25
-5 25 -25 0 -18 5 -25 20 -25 26 0 27 31 2 53 -27 25 -76 21 -109 -7z"/>
<path d="M5613 32746 c-24 -21 -28 -32 -28 -74 0 -59 21 -89 70 -98 38 -7 70
7 86 37 17 33 0 36 -25 5 -33 -42 -71 -31 -87 24 -16 54 7 110 46 110 20 0 25
-5 25 -25 0 -18 5 -25 20 -25 26 0 27 31 2 53 -27 25 -76 21 -109 -7z"/>
<path d="M5799 32741 c-76 -76 3 -201 102 -161 72 30 77 140 8 176 -43 22 -77
17 -110 -15z m100 -4 c35 -43 18 -132 -27 -144 -51 -13 -84 81 -46 135 17 25
56 29 73 9z"/>
<path d="M6002 32754 c-24 -17 -29 -56 -9 -72 7 -6 31 -17 53 -24 31 -11 39
-18 39 -38 0 -20 -6 -26 -28 -28 -22 -3 -31 3 -45 27 -23 41 -32 39 -32 -6 l0
-38 48 -2 c56 -2 92 18 92 51 0 42 -11 55 -61 71 -36 12 -49 21 -47 33 2 12
14 17 38 17 29 0 36 -4 38 -22 5 -35 22 -27 22 10 0 33 -1 34 -43 35 -25 1
-52 -4 -65 -14z"/>
<path d="M967 32733 c-19 -19 5 -23 133 -23 118 0 140 2 140 15 0 13 -21 15
-133 15 -74 0 -137 -3 -140 -7z"/>
<path d="M4607 32733 c-19 -19 5 -23 133 -23 118 0 140 2 140 15 0 13 -21 15
-133 15 -74 0 -137 -3 -140 -7z"/>
<path d="M2610 32685 c0 -13 107 -15 905 -15 798 0 905 2 905 15 0 13 -107 15
-905 15 -798 0 -905 -2 -905 -15z"/>
<path d="M967 32654 c-19 -20 5 -24 134 -24 108 0 140 3 137 13 -5 13 -258 24
-271 11z"/>
<path d="M4607 32654 c-19 -20 5 -24 134 -24 108 0 140 3 137 13 -5 13 -258
24 -271 11z"/>
<path d="M2630 32640 c-10 -6 -11 -10 -2 -10 9 0 12 -25 12 -89 0 -62 -4 -91
-12 -94 -7 -3 7 -6 32 -6 35 0 41 2 28 10 -24 14 -23 64 2 89 12 12 25 18 30
15 15 -9 12 -102 -2 -108 -7 -3 7 -6 31 -6 38 -1 42 1 28 12 -10 7 -17 30 -19
62 l-3 50 -43 0 -42 0 0 43 c0 43 -10 51 -40 32z"/>
<path d="M3470 32640 c-10 -6 -11 -10 -2 -10 9 0 12 -25 12 -89 0 -62 -4 -91
-12 -94 -7 -3 7 -6 32 -6 35 0 41 2 28 10 -24 14 -23 64 2 89 12 12 25 18 30
15 15 -9 12 -102 -2 -108 -7 -3 7 -6 31 -6 38 -1 42 1 28 12 -10 7 -17 30 -19
62 l-3 50 -43 0 -42 0 0 43 c0 43 -10 51 -40 32z"/>
<path d="M3712 32627 c-33 -35 -28 -52 8 -27 17 12 30 28 30 36 0 20 -13 17
-38 -9z"/>
<path d="M6501 32475 c-46 -96 -87 -175 -90 -175 -3 0 -21 34 -40 75 -18 41
-36 75 -40 75 -9 -1 -51 -37 -51 -45 0 -4 7 -4 15 -1 12 4 26 -17 57 -84 22
-50 45 -90 50 -90 5 0 52 88 104 195 l95 195 1489 0 c1318 0 1490 2 1490 15 0
13 -173 15 -1497 15 l-1498 0 -84 -175z"/>
<path d="M3356 32595 c-4 -14 -13 -25 -21 -25 -8 0 -15 -4 -15 -10 0 -5 7 -10
15 -10 11 0 15 -12 15 -44 0 -62 36 -96 68 -64 7 7 12 23 11 38 l-1 25 -10
-28 c-15 -41 -33 -28 -36 26 -3 45 -2 47 22 47 15 0 26 5 26 10 0 6 -11 10
-25 10 -20 0 -25 5 -25 25 0 14 -4 25 -9 25 -5 0 -12 -11 -15 -25z"/>
<path d="M2800 32560 c0 -5 4 -10 8 -10 11 0 52 -86 52 -108 0 -10 -7 -27 -15
-38 -13 -17 -14 -17 -15 -1 0 24 -30 22 -30 -3 0 -16 7 -20 31 -20 28 0 33 5
70 85 21 47 43 85 49 85 5 0 10 5 10 10 0 6 -13 10 -30 10 -28 0 -42 -14 -21
-22 5 -1 2 -18 -8 -36 l-17 -33 -17 36 c-9 19 -12 35 -7 35 6 0 10 5 10 10 0
6 -16 10 -35 10 -19 0 -35 -4 -35 -10z"/>
<path d="M2970 32559 c0 -5 5 -9 10 -9 6 0 10 -32 10 -75 0 -43 -4 -75 -10
-75 -5 0 -10 -4 -10 -10 0 -5 18 -10 40 -10 22 0 40 5 40 10 0 6 -7 10 -15 10
-8 0 -15 9 -15 20 0 17 5 19 24 14 24 -6 65 10 78 30 14 20 8 73 -10 89 -19
18 -142 23 -142 6z m112 -16 c31 -28 14 -93 -26 -93 -36 0 -51 80 -18 99 23
14 23 14 44 -6z"/>
<path d="M3177 32552 c-27 -29 -22 -77 10 -102 69 -54 165 38 103 100 -26 26
-90 27 -113 2z m81 -4 c27 -27 9 -98 -24 -98 -20 0 -44 30 -44 55 0 42 42 69
68 43z"/>
<path d="M3657 32552 c-26 -29 -22 -77 9 -101 15 -12 35 -21 44 -21 22 0 68
36 58 45 -4 4 -14 0 -23 -9 -21 -21 -38 -20 -58 2 -26 28 -21 32 33 32 53 0
61 10 40 51 -14 26 -80 26 -103 1z m73 -7 c17 -21 9 -27 -31 -23 -31 3 -32 4
-15 21 21 21 30 21 46 2z"/>
<path d="M3790 32560 c0 -6 5 -10 10 -10 15 0 13 -97 -2 -103 -7 -3 7 -6 32
-6 35 0 41 2 28 10 -24 14 -23 64 2 89 12 12 25 18 30 15 15 -9 12 -102 -2
-108 -7 -3 7 -6 31 -6 38 -1 42 1 28 12 -10 7 -17 30 -19 62 l-3 50 -67 2
c-38 1 -68 -2 -68 -7z"/>
<path d="M3960 32560 c0 -5 5 -10 10 -10 6 0 10 -20 10 -44 0 -63 37 -94 80
-66 9 6 17 5 21 -2 4 -6 16 -7 29 -3 20 6 21 9 7 17 -13 7 -17 23 -17 63 0 52
-1 55 -25 55 -14 0 -25 -4 -25 -10 0 -5 5 -10 11 -10 6 0 9 -19 7 -47 -2 -37
-7 -49 -22 -51 -26 -5 -36 15 -36 71 0 43 -2 47 -25 47 -14 0 -25 -4 -25 -10z"/>
<path d="M4154 32556 c-12 -31 1 -50 41 -62 43 -12 54 -37 18 -42 -14 -2 -27
4 -35 17 -18 29 -28 26 -28 -6 0 -25 4 -28 37 -30 20 -1 45 3 55 8 18 10 25
53 10 63 -5 3 -7 19 -4 36 4 30 4 30 -42 30 -31 0 -48 -5 -52 -14z m74 -8 c14
-14 16 -28 3 -28 -23 0 -62 21 -56 30 8 14 38 13 53 -2z"/>
<path d="M4297 32552 c-26 -29 -22 -77 9 -101 15 -12 35 -21 44 -21 22 0 68
36 58 45 -4 4 -14 0 -23 -9 -21 -21 -38 -20 -58 2 -26 28 -21 32 33 32 53 0
61 10 40 51 -14 26 -80 26 -103 1z m73 -7 c17 -21 9 -27 -31 -23 -31 3 -32 4
-15 21 21 21 30 21 46 2z"/>
<path d="M6667 32552 c-64 -71 -61 -199 7 -261 33 -31 33 -24 0 36 -21 40 -25
58 -22 110 3 44 10 71 26 92 12 17 22 33 22 36 0 11 -18 4 -33 -13z"/>
<path d="M7700 32565 c0 -3 10 -19 22 -36 16 -21 23 -48 26 -94 4 -55 1 -71
-22 -111 -31 -56 -31 -58 -7 -45 10 6 29 31 41 57 30 62 24 149 -15 199 -23
31 -45 45 -45 30z"/>
<path d="M7843 32563 c-7 -2 -13 -16 -13 -30 0 -15 5 -23 13 -20 6 2 11 12 11
21 -2 22 42 22 50 0 4 -11 -7 -29 -34 -54 -22 -20 -40 -40 -40 -43 0 -4 22 -7
49 -7 36 0 51 4 55 16 4 9 3 20 0 23 -4 3 -9 0 -11 -6 -3 -7 -16 -13 -30 -13
l-26 0 29 22 c49 37 55 56 28 82 -15 15 -55 20 -81 9z"/>
<path d="M8307 32552 c-64 -71 -61 -199 7 -261 33 -31 33 -24 0 36 -21 40 -25
58 -22 110 3 44 10 71 26 92 12 17 22 33 22 36 0 11 -18 4 -33 -13z"/>
<path d="M9300 32565 c0 -3 10 -19 22 -36 16 -21 23 -48 26 -94 4 -55 1 -71
-22 -111 -31 -56 -31 -58 -7 -45 10 6 29 31 41 57 30 62 24 149 -15 199 -23
31 -45 45 -45 30z"/>
<path d="M9443 32563 c-7 -2 -13 -16 -13 -30 0 -15 5 -23 13 -20 6 2 11 12 11
21 -2 22 42 22 50 0 4 -11 -7 -29 -34 -54 -22 -20 -40 -40 -40 -43 0 -4 22 -7
49 -7 36 0 51 4 55 16 4 9 3 20 0 23 -4 3 -9 0 -11 -6 -3 -7 -16 -13 -30 -13
l-26 0 29 22 c49 37 55 56 28 82 -15 15 -55 20 -81 9z"/>
<path d="M8100 32486 l0 -56 -50 0 c-27 0 -50 -4 -50 -10 0 -5 23 -10 50 -10
l50 0 0 -50 c0 -27 5 -50 10 -50 6 0 10 23 10 50 l0 50 50 0 c28 0 50 5 50 10
0 6 -22 10 -50 10 l-50 0 0 49 c0 28 -4 53 -10 56 -6 4 -10 -15 -10 -49z"/>
<path d="M6751 32467 c-12 -12 -15 -37 -3 -37 4 0 13 9 20 20 28 46 43 5 21
-59 -10 -30 -32 -45 -26 -18 1 6 -5 12 -13 12 -8 0 -16 -7 -18 -17 -4 -20 35
-35 51 -19 7 7 16 7 29 0 24 -13 55 -3 69 23 15 28 2 36 -17 10 -8 -12 -22
-22 -31 -22 -12 0 -14 7 -8 37 4 21 12 47 18 58 10 18 11 18 15 3 5 -24 32
-23 32 1 0 18 -7 20 -64 20 -35 0 -68 -5 -75 -12z"/>
<path d="M7361 32467 c-12 -12 -15 -37 -3 -37 4 0 13 9 20 20 28 46 43 5 21
-59 -10 -30 -32 -45 -26 -18 1 6 -5 12 -13 12 -8 0 -16 -7 -18 -17 -4 -20 35
-35 51 -19 7 7 16 7 29 0 24 -13 55 -3 69 23 15 28 2 36 -17 10 -8 -12 -22
-22 -31 -22 -12 0 -14 7 -8 37 4 21 12 47 18 58 10 18 11 18 15 3 5 -24 32
-23 32 1 0 18 -7 20 -64 20 -35 0 -68 -5 -75 -12z"/>
<path d="M8380 32460 c-17 -31 -4 -37 21 -9 18 21 20 21 14 4 -4 -11 -9 -36
-12 -55 -6 -41 15 -66 48 -57 18 5 19 3 7 -11 -28 -37 -49 -42 -41 -11 5 17 2
20 -13 17 -11 -2 -19 -12 -19 -23 0 -16 8 -21 35 -23 48 -4 73 25 94 110 19
81 19 78 1 78 -8 0 -18 -17 -25 -42 -14 -56 -23 -72 -45 -77 -16 -3 -17 2 -11
35 14 73 13 79 -16 82 -19 2 -30 -3 -38 -18z"/>
<path d="M8970 32460 c-17 -31 -4 -37 21 -9 18 21 20 21 14 4 -4 -11 -9 -36
-12 -55 -6 -41 15 -66 48 -57 18 5 19 3 7 -11 -28 -37 -49 -42 -41 -11 5 17 2
20 -13 17 -11 -2 -19 -12 -19 -23 0 -16 8 -21 35 -23 48 -4 73 25 94 110 19
81 19 78 1 78 -8 0 -18 -17 -25 -42 -14 -56 -23 -72 -45 -77 -16 -3 -17 2 -11
35 14 73 13 79 -16 82 -19 2 -30 -3 -38 -18z"/>
<path d="M6963 32433 c-26 -5 -31 -23 -8 -23 23 0 21 -97 -2 -103 -10 -3 5 -5
32 -5 28 0 42 2 33 5 -15 4 -18 16 -18 69 0 35 -3 63 -7 63 -5 -1 -18 -4 -30
-6z"/>
<path d="M7549 32423 c-22 -25 -18 -102 5 -119 46 -33 96 -1 96 61 0 43 -25
75 -59 75 -16 0 -35 -7 -42 -17z m66 -58 c0 -41 -3 -50 -19 -53 -24 -5 -36 14
-36 59 0 42 7 51 35 47 17 -3 20 -10 20 -53z"/>
<path d="M8583 32433 c-26 -5 -31 -23 -8 -23 23 0 21 -97 -2 -103 -10 -3 5 -5
32 -5 28 0 42 2 33 5 -15 4 -18 16 -18 69 0 35 -3 63 -7 63 -5 -1 -18 -4 -30
-6z"/>
<path d="M9149 32423 c-22 -25 -18 -102 5 -119 46 -33 96 -1 96 61 0 43 -25
75 -59 75 -16 0 -35 -7 -42 -17z m66 -58 c0 -41 -3 -50 -19 -53 -24 -5 -36 14
-36 59 0 42 7 51 35 47 17 -3 20 -10 20 -53z"/>
<path d="M7100 32420 c0 -6 40 -10 100 -10 60 0 100 4 100 10 0 6 -40 10 -100
10 -60 0 -100 -4 -100 -10z"/>
<path d="M8720 32420 c0 -6 40 -10 100 -10 60 0 100 4 100 10 0 6 -40 10 -100
10 -60 0 -100 -4 -100 -10z"/>
</g>
</svg>
