<?xml version="1.0" standalone="no"?>
<!DOCTYPE svg PUBLIC "-//W3C//DTD SVG 20010904//EN"
 "http://www.w3.org/TR/2001/REC-SVG-20010904/DTD/svg10.dtd">
<svg version="1.0" xmlns="http://www.w3.org/2000/svg"
 width="2550.000000pt" height="3300.000000pt" viewBox="0 0 2550.000000 3300.000000"
 preserveAspectRatio="xMidYMid meet">
<metadata>
Created by potrace 1.16, written by Peter Selinger 2001-2019
</metadata>
<g transform="translate(0.000000,3300.000000) scale(0.100000,-0.100000)"
fill="#000000" stroke="none">
<path d="M2120 32991 c0 -5 7 -11 15 -15 12 -4 15 -28 15 -126 0 -100 -2 -120
-15 -120 -8 0 -15 -4 -15 -10 0 -5 23 -10 50 -10 28 0 50 5 50 10 0 6 -7 10
-15 10 -13 0 -15 22 -15 135 l0 135 -35 0 c-19 0 -35 -4 -35 -9z"/>
<path d="M5358 32966 c-31 -39 -34 -46 -15 -46 18 0 78 60 72 71 -11 17 -30 9
-57 -25z"/>
<path d="M2720 32929 c0 -8 49 -37 108 -65 l107 -51 -107 -51 c-60 -28 -108
-56 -108 -62 0 -5 4 -10 9 -10 21 0 251 114 251 124 -1 6 -51 34 -113 63 -144
67 -147 68 -147 52z"/>
<path d="M3681 32895 c-12 -19 -43 -44 -67 -55 -24 -12 -44 -25 -44 -29 0 -4
16 -13 35 -20 19 -6 50 -30 68 -52 41 -48 65 -53 42 -9 l-16 30 237 0 c229 0
237 -1 221 -18 -17 -18 -23 -42 -11 -42 3 0 25 20 49 45 24 24 55 47 69 51 35
9 33 20 -9 40 -20 9 -51 35 -70 57 -34 40 -61 45 -37 7 7 -11 12 -22 12 -25 0
-3 -104 -5 -231 -5 l-231 0 16 25 c19 29 20 35 4 35 -7 0 -24 -16 -37 -35z
m542 -70 c39 -29 -12 -35 -296 -35 -225 0 -277 3 -286 14 -25 30 19 35 294 35
215 0 274 -2 288 -14z"/>
<path d="M653 32893 c-26 -5 -31 -23 -8 -23 12 0 15 -14 15 -70 0 -56 -3 -70
-15 -70 -8 0 -15 -4 -15 -10 0 -5 23 -10 50 -10 28 0 50 5 50 10 0 6 -7 10
-15 10 -12 0 -15 13 -15 58 0 47 4 63 21 78 35 31 53 9 57 -70 3 -61 1 -66
-18 -66 -11 0 -20 -4 -20 -10 0 -5 25 -10 55 -10 30 0 55 5 55 10 0 6 -10 10
-21 10 -20 0 -21 4 -17 61 5 64 24 93 58 87 22 -5 28 -148 5 -148 -8 0 -15 -4
-15 -10 0 -5 23 -10 50 -10 28 0 50 5 50 10 0 6 -7 10 -15 10 -12 0 -15 14
-15 65 0 52 -4 69 -20 85 -24 24 -48 25 -79 4 -15 -11 -25 -13 -30 -6 -10 17
-58 25 -80 12 -14 -7 -21 -7 -21 0 0 10 -7 11 -47 3z"/>
<path d="M1018 32889 c-26 -15 -24 -59 3 -59 17 0 20 5 17 25 -4 20 -1 25 16
25 26 0 46 -18 46 -41 0 -11 -12 -18 -39 -23 -26 -4 -47 -15 -60 -32 -26 -33
-26 -39 -1 -64 23 -23 72 -26 90 -5 11 13 14 13 27 0 18 -19 28 -19 47 1 18
17 22 54 6 54 -5 0 -10 -9 -10 -20 0 -11 -4 -20 -10 -20 -6 0 -10 27 -10 60 0
51 -4 65 -25 85 -25 26 -67 32 -97 14z m80 -120 c-4 -38 -30 -59 -55 -43 -9 6
-18 15 -21 22 -5 16 35 52 59 52 17 0 20 -5 17 -31z"/>
<path d="M1508 32889 c-26 -15 -24 -59 3 -59 17 0 20 5 17 25 -4 20 -1 25 16
25 26 0 46 -18 46 -41 0 -11 -12 -18 -39 -23 -26 -4 -47 -15 -60 -32 -26 -33
-26 -39 -1 -64 23 -23 72 -26 90 -5 11 13 14 13 27 0 18 -19 28 -19 47 1 18
17 22 54 6 54 -5 0 -10 -9 -10 -20 0 -11 -4 -20 -10 -20 -6 0 -10 27 -10 60 0
51 -4 65 -25 85 -25 26 -67 32 -97 14z m80 -120 c-4 -38 -30 -59 -55 -43 -9 6
-18 15 -21 22 -5 16 35 52 59 52 17 0 20 -5 17 -31z"/>
<path d="M1703 32893 c-26 -5 -31 -23 -8 -23 12 0 15 -14 15 -70 0 -56 -3 -70
-15 -70 -8 0 -15 -4 -15 -10 0 -5 23 -10 50 -10 28 0 50 5 50 10 0 6 -7 10
-15 10 -12 0 -15 13 -15 58 0 47 4 63 21 78 35 31 53 9 57 -70 3 -61 1 -66
-18 -66 -11 0 -20 -4 -20 -10 0 -5 25 -10 55 -10 30 0 55 5 55 10 0 6 -9 10
-20 10 -18 0 -20 7 -20 68 0 37 -4 72 -8 79 -11 18 -58 26 -81 13 -14 -7 -21
-7 -21 0 0 10 -7 11 -47 3z"/>
<path d="M1943 32876 c-23 -20 -24 -24 -15 -89 7 -53 6 -70 -5 -78 -24 -21
-15 -57 19 -75 58 -30 158 -1 158 46 0 36 -27 54 -86 60 -42 4 -60 9 -62 21
-2 12 5 14 33 11 52 -6 79 20 72 70 -5 36 4 50 18 28 10 -16 25 -11 25 9 0 16
-8 18 -67 18 -52 -1 -71 -5 -90 -21z m72 -41 c0 -31 -4 -41 -19 -43 -32 -7
-50 50 -24 76 24 24 43 9 43 -33z m36 -135 c23 -13 24 -24 3 -44 -18 -18 -66
-21 -95 -6 -21 12 -26 46 -6 53 22 9 78 7 98 -3z"/>
<path d="M2269 32871 c-58 -58 -28 -155 53 -168 30 -4 41 -1 62 20 26 26 34
47 17 47 -5 0 -16 -11 -25 -25 -9 -14 -25 -25 -36 -25 -26 0 -60 34 -60 60 0
18 7 20 59 20 33 0 62 4 65 9 9 14 -15 71 -34 81 -34 18 -71 11 -101 -19z m91
-10 c18 -34 11 -41 -35 -41 -49 0 -53 5 -29 38 19 27 50 29 64 3z"/>
<path d="M2442 32884 c-24 -17 -29 -56 -9 -72 7 -6 31 -17 53 -24 31 -11 39
-18 39 -38 0 -20 -6 -26 -28 -28 -22 -3 -31 3 -45 27 -23 41 -32 39 -32 -6 l0
-38 48 -2 c56 -2 92 18 92 51 0 42 -11 55 -61 71 -36 12 -49 21 -47 33 2 12
14 17 38 17 29 0 36 -4 38 -22 5 -35 22 -27 22 10 0 33 -1 34 -43 35 -25 1
-52 -4 -65 -14z"/>
<path d="M3187 32880 c-13 -11 -27 -34 -30 -52 -4 -18 -9 -48 -13 -67 -5 -27
-3 -37 12 -48 26 -19 88 -16 115 6 32 26 20 35 -19 15 -24 -11 -40 -13 -60 -6
-50 16 -36 76 16 66 32 -5 58 9 47 26 -5 8 -19 10 -41 5 -26 -4 -34 -2 -34 8
0 28 28 40 80 34 38 -5 50 -3 50 7 0 32 -85 36 -123 6z"/>
<path d="M4583 32876 c-24 -21 -28 -32 -28 -74 0 -59 21 -89 70 -98 38 -7 70
7 86 37 17 33 0 36 -25 5 -33 -42 -71 -31 -87 24 -16 54 7 110 46 110 20 0 25
-5 25 -25 0 -18 5 -25 20 -25 26 0 27 31 2 53 -27 25 -76 21 -109 -7z"/>
<path d="M4778 32889 c-26 -15 -24 -59 3 -59 17 0 20 5 17 25 -4 20 -1 25 16
25 26 0 46 -18 46 -41 0 -11 -12 -18 -39 -23 -26 -4 -47 -15 -60 -32 -26 -33
-26 -39 -1 -64 23 -23 72 -26 90 -5 11 13 14 13 27 0 18 -19 28 -19 47 1 18
17 22 54 6 54 -5 0 -10 -9 -10 -20 0 -11 -4 -20 -10 -20 -6 0 -10 27 -10 60 0
51 -4 65 -25 85 -25 26 -67 32 -97 14z m80 -120 c-4 -38 -30 -59 -55 -43 -9 6
-18 15 -21 22 -5 16 35 52 59 52 17 0 20 -5 17 -31z"/>
<path d="M4972 32884 c-24 -17 -29 -56 -9 -72 7 -6 31 -17 53 -24 31 -11 39
-18 39 -38 0 -20 -6 -26 -28 -28 -22 -3 -31 3 -45 27 -23 41 -32 39 -32 -6 l0
-38 48 -2 c56 -2 92 18 92 51 0 42 -11 55 -61 71 -36 12 -49 21 -47 33 2 12
14 17 38 17 29 0 36 -4 38 -22 5 -35 22 -27 22 10 0 33 -1 34 -43 35 -25 1
-52 -4 -65 -14z"/>
<path d="M5132 32884 c-24 -17 -29 -56 -9 -72 7 -6 31 -17 53 -24 31 -11 39
-18 39 -38 0 -20 -6 -26 -28 -28 -22 -3 -31 3 -45 27 -23 41 -32 39 -32 -6 l0
-38 48 -2 c56 -2 92 18 92 51 0 42 -11 55 -61 71 -36 12 -49 21 -47 33 2 12
14 17 38 17 29 0 36 -4 38 -22 5 -35 22 -27 22 10 0 33 -1 34 -43 35 -25 1
-52 -4 -65 -14z"/>
<path d="M5299 32871 c-58 -58 -28 -155 53 -168 30 -4 41 -1 62 20 26 26 34
47 17 47 -5 0 -16 -11 -25 -25 -9 -14 -25 -25 -36 -25 -26 0 -60 34 -60 60 0
18 7 20 59 20 33 0 62 4 65 9 9 14 -15 71 -34 81 -34 18 -71 11 -101 -19z m91
-10 c18 -34 11 -41 -35 -41 -49 0 -53 5 -29 38 19 27 50 29 64 3z"/>
<path d="M1180 32880 c0 -5 8 -10 18 -10 11 0 30 -16 45 -36 l26 -37 -22 -29
c-12 -16 -32 -31 -44 -34 -37 -10 -26 -24 18 -24 31 0 40 3 36 14 -3 7 1 23 9
35 l15 21 19 -22 c10 -12 15 -28 13 -35 -4 -9 8 -13 41 -13 25 0 46 5 46 10 0
6 -8 10 -17 10 -17 0 -73 59 -73 76 0 13 53 64 67 64 7 0 13 5 13 10 0 6 -18
10 -41 10 -35 0 -40 -3 -34 -19 3 -10 -1 -24 -10 -31 -13 -11 -18 -10 -29 6
-8 10 -12 24 -9 31 4 9 -7 13 -41 13 -25 0 -46 -4 -46 -10z"/>
</g>
</svg>
