<?xml version="1.0" standalone="no"?>
<!DOCTYPE svg PUBLIC "-//W3C//DTD SVG 20010904//EN"
 "http://www.w3.org/TR/2001/REC-SVG-20010904/DTD/svg10.dtd">
<svg version="1.0" xmlns="http://www.w3.org/2000/svg"
 width="188.000000pt" height="187.000000pt" viewBox="0 0 188.000000 187.000000"
 preserveAspectRatio="xMidYMid meet">
<metadata>
Created by potrace 1.16, written by Peter Selinger 2001-2019
</metadata>
<g transform="translate(0.000000,187.000000) scale(0.100000,-0.100000)"
fill="#000000" stroke="none">
<path d="M0 935 l0 -935 330 0 c319 1 330 2 330 20 0 11 -9 35 -20 55 -11 20
-20 47 -20 60 0 14 -4 25 -10 25 -5 0 -10 14 -10 30 0 17 -4 30 -10 30 -5 0
-10 23 -10 50 0 28 -4 50 -10 50 -5 0 -10 14 -10 30 0 17 -4 30 -10 30 -5 0
-10 14 -10 30 0 17 -4 30 -10 30 -5 0 -10 18 -10 40 0 22 5 40 10 40 17 0 11
36 -10 55 -11 10 -20 23 -20 30 0 7 -9 20 -20 30 -11 10 -20 24 -20 30 0 7 -7
18 -15 25 -19 16 -45 68 -45 90 0 9 -9 25 -20 35 -11 10 -20 26 -20 37 0 10
-4 18 -10 18 -5 0 -10 8 -10 18 0 10 -9 24 -20 32 -18 13 -29 50 -15 50 13 0
55 -50 55 -65 0 -8 5 -15 10 -15 6 0 10 -8 10 -18 0 -10 9 -24 20 -32 14 -10
20 -26 20 -53 0 -30 6 -44 30 -64 17 -13 30 -30 30 -37 0 -7 9 -21 20 -31 11
-10 20 -23 20 -30 0 -7 9 -20 20 -30 21 -19 28 -75 10 -75 -5 0 -10 -18 -10
-40 0 -22 5 -40 10 -40 6 0 10 -13 10 -30 0 -16 5 -30 10 -30 6 0 10 -13 10
-30 0 -16 5 -30 10 -30 6 0 10 -18 10 -40 0 -22 3 -40 8 -40 15 0 32 -53 21
-66 -7 -8 -7 -14 1 -19 5 -3 10 -19 10 -36 0 -16 5 -29 10 -29 6 0 10 -9 10
-19 0 -10 7 -21 15 -25 8 -3 15 -15 15 -26 0 -20 4 -20 445 -20 l445 0 0 100
c0 60 -4 100 -10 100 -6 0 -10 33 -10 80 0 47 -4 80 -10 80 -6 0 -10 85 -10
235 0 150 4 235 10 235 6 0 10 9 10 20 0 11 5 20 10 20 6 0 10 9 10 20 0 11 5
20 10 20 6 0 10 6 10 13 0 18 24 67 33 67 4 0 7 9 7 20 0 11 5 20 10 20 6 0
10 76 10 209 0 129 4 212 10 216 5 3 10 24 10 46 0 21 5 39 10 39 6 0 10 18
10 40 0 22 5 40 10 40 6 0 10 18 10 40 0 22 5 40 10 40 6 0 10 14 10 30 0 17
5 30 10 30 6 0 10 18 10 40 0 22 5 40 10 40 6 0 10 7 10 15 0 13 -106 15 -890
15 l-890 0 0 -935z m180 905 c0 -11 5 -20 10 -20 6 0 10 -9 10 -20 0 -11 5
-20 10 -20 6 0 10 -13 10 -30 0 -16 5 -30 10 -30 6 0 10 -27 10 -60 0 -33 4
-60 10 -60 6 0 10 -33 10 -79 0 -44 5 -83 10 -86 6 -3 10 -50 10 -106 0 -59 4
-99 10 -99 6 0 10 -32 10 -75 0 -67 3 -79 25 -100 13 -14 31 -25 40 -25 11 0
15 -11 15 -40 0 -22 -4 -40 -10 -40 -5 0 -10 14 -10 30 0 27 -3 30 -30 30 -23
0 -30 -4 -30 -20 0 -11 -4 -20 -10 -20 -5 0 -10 -22 -10 -50 0 -27 -4 -50 -10
-50 -5 0 -10 23 -10 50 0 49 -1 50 -30 50 -25 0 -30 -4 -30 -25 0 -13 9 -40
20 -60 11 -20 20 -44 20 -55 0 -10 5 -22 10 -25 6 -3 10 -19 10 -36 0 -16 5
-29 10 -29 6 0 10 -9 10 -20 0 -11 5 -20 10 -20 6 0 10 -18 10 -40 0 -22 5
-40 10 -40 6 0 10 -13 10 -30 0 -16 5 -30 10 -30 6 0 10 -13 10 -30 0 -16 5
-30 10 -30 6 0 10 -18 10 -40 0 -22 5 -40 10 -40 6 0 10 -18 10 -40 0 -22 5
-40 10 -40 6 0 10 -18 10 -40 0 -22 5 -40 10 -40 6 0 10 -18 10 -39 0 -22 5
-43 10 -46 6 -3 10 -24 10 -46 0 -21 5 -39 10 -39 6 0 10 -18 10 -41 0 -24 -4
-38 -10 -34 -5 3 -10 21 -10 40 0 19 -4 37 -10 40 -5 3 -10 24 -10 46 0 21 -4
39 -10 39 -5 0 -10 18 -10 40 0 22 -4 40 -10 40 -5 0 -10 18 -10 40 0 22 -4
40 -10 40 -5 0 -10 18 -10 40 0 22 -4 40 -10 40 -5 0 -10 18 -10 40 0 22 -4
40 -10 40 -5 0 -10 14 -10 30 0 17 -4 30 -10 30 -5 0 -10 14 -10 30 0 17 -4
30 -10 30 -5 0 -10 16 -10 35 0 19 -9 50 -20 70 -11 20 -20 47 -20 60 0 14 -4
25 -10 25 -5 0 -10 14 -10 30 0 17 -4 30 -10 30 -5 0 -10 9 -10 20 0 11 -4 20
-10 20 -5 0 -10 18 -10 40 l0 40 50 0 c43 0 50 3 50 20 0 11 5 20 10 20 6 0
10 9 10 20 0 11 -4 20 -10 20 -6 0 -10 33 -10 80 0 47 -4 80 -10 80 -6 0 -10
42 -10 105 0 63 -4 105 -10 105 -6 0 -10 33 -10 80 0 47 -4 80 -10 80 -6 0
-10 27 -10 60 0 33 -4 60 -10 60 -5 0 -10 14 -10 30 0 17 -4 30 -10 30 -5 0
-10 9 -10 20 0 11 -4 20 -10 20 -5 0 -10 9 -10 20 0 11 5 20 10 20 6 0 10 -9
10 -20z m930 -650 c0 -15 7 -20 29 -20 16 0 32 6 35 13 5 10 7 10 12 0 3 -7
19 -13 35 -13 16 0 29 -4 29 -10 0 -5 14 -10 30 -10 17 0 30 -4 30 -10 0 -5 9
-10 20 -10 11 0 20 -4 20 -9 0 -5 10 -11 22 -13 12 -2 28 -13 34 -25 6 -13 19
-31 28 -42 11 -12 16 -30 14 -48 l-4 -28 -12 28 c-6 15 -19 30 -27 33 -8 4
-15 14 -15 23 0 20 -44 61 -65 61 -8 0 -15 5 -15 10 0 6 -13 10 -30 10 -16 0
-30 5 -30 10 0 6 -13 10 -29 10 -16 0 -32 6 -35 13 -5 10 -7 10 -12 0 -3 -7
-14 -13 -25 -13 -14 0 -19 -7 -19 -25 0 -29 -40 -75 -65 -75 -10 0 -15 -10
-15 -30 0 -16 -4 -30 -10 -30 -5 0 -10 -7 -10 -16 0 -9 -14 -29 -31 -45 l-32
-30 20 -22 c11 -12 23 -30 26 -40 4 -9 19 -22 33 -28 21 -7 24 -13 16 -21 -7
-7 -12 -31 -12 -55 0 -46 -15 -61 -47 -48 -16 6 -15 8 5 16 18 7 22 16 22 55
0 40 -4 50 -37 80 -21 18 -42 34 -46 34 -19 0 -57 -51 -57 -78 0 -33 26 -92
41 -92 15 0 23 30 10 43 -15 15 -14 56 3 73 17 16 46 19 46 4 0 -5 -9 -10 -20
-10 -16 0 -20 -7 -20 -35 0 -19 5 -35 10 -35 6 0 10 -11 10 -24 0 -14 -4 -28
-10 -31 -5 -3 -10 -24 -10 -46 0 -21 5 -39 10 -39 6 0 10 -9 10 -20 0 -11 5
-20 10 -20 6 0 10 -9 10 -20 0 -11 -4 -20 -10 -20 -5 0 -10 9 -10 20 0 11 -4
20 -10 20 -5 0 -10 9 -10 20 0 23 -10 26 -28 8 -9 -9 -12 -9 -12 0 0 7 5 12
10 12 6 0 10 18 10 41 0 47 -17 49 -40 3 -12 -25 -15 -26 -18 -9 -2 10 1 21 7
23 13 4 15 54 2 68 -5 5 -11 25 -13 44 l-3 35 -77 3 -78 3 0 30 c0 18 4 28 10
24 6 -3 10 -13 10 -21 0 -11 15 -14 66 -14 60 0 68 3 94 30 15 17 35 30 44 30
9 0 16 7 16 16 0 9 14 29 30 44 17 15 30 35 30 44 0 9 5 16 10 16 6 0 10 14
10 30 0 23 4 30 20 30 11 0 20 5 20 10 0 6 9 10 20 10 16 0 20 7 20 30 0 17
-4 30 -10 30 -5 0 -10 9 -10 20 0 11 -4 20 -10 20 -5 0 -10 5 -10 10 0 6 9 10
20 10 13 0 20 -7 20 -20z m508 -62 c2 -21 7 -38 12 -38 10 0 -57 -135 -76
-151 -10 -8 -14 -8 -14 0 0 6 5 11 10 11 6 0 10 9 10 20 0 11 5 20 10 20 6 0
10 9 10 20 0 11 5 20 10 20 6 0 10 27 10 60 0 53 -2 60 -20 60 -17 0 -20 -7
-20 -48 0 -46 -20 -105 -41 -117 -5 -4 -9 -35 -9 -71 0 -41 -4 -63 -10 -59
-28 17 -3 180 31 200 5 4 9 31 9 61 l0 55 38 -3 c35 -3 37 -5 40 -40z m-1158
-168 c0 -5 9 -10 20 -10 13 0 20 -7 20 -20 0 -11 5 -20 10 -20 6 0 10 -9 10
-20 0 -18 7 -20 80 -20 47 0 80 -4 80 -10 0 -5 -19 -10 -43 -10 -24 0 -49 -6
-56 -12 -11 -10 -14 -10 -18 0 -3 6 -18 12 -34 12 -22 0 -29 5 -29 20 0 11 -4
20 -10 20 -5 0 -10 9 -10 20 0 12 -7 20 -16 20 -18 0 -46 25 -37 34 10 10 33
7 33 -4z m590 -70 c0 -40 0 -40 38 -40 21 0 43 5 50 12 9 9 12 8 12 -6 0 -9 7
-24 15 -32 12 -12 18 -12 36 -2 17 10 23 10 26 1 3 -8 22 -13 46 -13 24 0 48
-7 59 -17 19 -17 24 -43 8 -43 -5 0 -10 9 -10 20 0 18 -7 20 -80 20 -47 0 -80
4 -80 10 0 6 -9 10 -19 10 -11 0 -23 5 -26 10 -3 6 -20 10 -36 10 -35 0 -59
20 -59 49 0 11 -4 23 -10 26 -17 10 -11 25 10 25 17 0 20 -7 20 -40z"/>
<path d="M1796 1855 c4 -8 1 -15 -5 -15 -6 0 -11 -15 -11 -34 0 -19 -4 -38
-10 -41 -5 -3 -10 -19 -10 -36 0 -16 -4 -29 -10 -29 -5 0 -10 -18 -10 -40 0
-22 -4 -40 -10 -40 -5 0 -10 -18 -10 -40 0 -22 -4 -40 -10 -40 -5 0 -10 -18
-10 -40 0 -22 -4 -40 -10 -40 -6 0 -10 -78 -10 -215 0 -137 -4 -215 -10 -215
-5 0 -10 -13 -10 -30 0 -16 -4 -30 -10 -30 -5 0 -10 -9 -10 -20 0 -11 -3 -20
-7 -20 -9 0 -33 -48 -33 -65 0 -6 -9 -17 -20 -25 -19 -14 -20 -26 -20 -247 0
-144 4 -234 10 -238 6 -3 10 -39 10 -80 0 -41 5 -77 10 -80 6 -3 10 -48 10
-101 l0 -94 140 0 140 0 0 935 0 935 -45 0 c-35 0 -43 -3 -39 -15z"/>
</g>
</svg>
