<?xml version="1.0" standalone="no"?>
<!DOCTYPE svg PUBLIC "-//W3C//DTD SVG 20010904//EN"
 "http://www.w3.org/TR/2001/REC-SVG-20010904/DTD/svg10.dtd">
<svg version="1.0" xmlns="http://www.w3.org/2000/svg"
 width="406.000000pt" height="435.000000pt" viewBox="0 0 406.000000 435.000000"
 preserveAspectRatio="xMidYMid meet">
<metadata>
Created by potrace 1.16, written by Peter Selinger 2001-2019
</metadata>
<g transform="translate(0.000000,435.000000) scale(0.100000,-0.100000)"
fill="#000000" stroke="none">
<path d="M233 4177 c-40 -46 -57 -111 -51 -201 5 -74 33 -143 73 -176 27 -22
28 -4 1 37 -64 98 -60 256 10 351 26 34 0 26 -33 -11z"/>
<path d="M1344 4173 c38 -60 49 -108 44 -194 -4 -66 -10 -86 -37 -130 -17 -28
-29 -54 -26 -57 10 -10 45 32 71 85 24 48 26 62 22 141 -4 89 -17 127 -58 170
-33 35 -43 26 -16 -15z"/>
<path d="M2003 4177 c-40 -46 -57 -111 -51 -201 5 -74 33 -143 73 -176 27 -22
28 -4 1 37 -64 98 -60 256 10 351 26 34 0 26 -33 -11z"/>
<path d="M3114 4173 c38 -60 49 -108 44 -194 -4 -66 -10 -86 -37 -130 -17 -28
-29 -54 -26 -57 10 -10 45 32 71 85 24 48 26 62 22 141 -4 89 -17 127 -58 170
-33 35 -43 26 -16 -15z"/>
<path d="M370 4083 c-19 -7 -49 -44 -50 -60 0 -20 18 -15 25 7 9 27 43 46 58
31 8 -8 5 -30 -9 -78 -19 -65 -44 -96 -44 -53 0 29 -34 23 -38 -7 -3 -17 3
-24 22 -29 15 -3 32 -1 40 6 11 8 20 8 35 1 11 -6 27 -11 36 -11 20 0 65 44
65 65 0 24 -13 18 -32 -15 -17 -30 -41 -39 -53 -20 -9 14 21 121 39 139 15 14
16 13 16 -7 0 -15 6 -22 20 -22 15 0 20 7 20 24 0 29 -30 42 -60 26 -14 -7
-26 -8 -39 0 -21 11 -28 11 -51 3z"/>
<path d="M941 4064 c-21 -27 -28 -54 -13 -54 4 0 13 14 19 30 6 17 16 30 22
30 15 0 14 -9 -4 -60 -28 -80 -10 -126 47 -118 l28 5 -18 -31 c-10 -17 -27
-32 -39 -34 -17 -3 -20 1 -16 22 4 22 2 26 -16 26 -18 0 -22 -5 -19 -26 4 -33
27 -49 60 -41 51 13 69 39 99 146 34 123 34 121 11 121 -15 0 -22 -15 -36 -73
-18 -79 -29 -97 -59 -97 -21 0 -21 -4 -1 124 5 27 2 41 -7 47 -23 14 -36 10
-58 -17z"/>
<path d="M2140 4083 c-19 -7 -49 -44 -50 -60 0 -20 18 -15 25 7 9 27 43 46 58
31 8 -8 5 -30 -9 -78 -19 -65 -44 -96 -44 -53 0 29 -34 23 -38 -7 -3 -17 3
-24 22 -29 15 -3 32 -1 40 6 11 8 20 8 35 1 11 -6 27 -11 36 -11 20 0 65 44
65 65 0 24 -13 18 -32 -15 -17 -30 -41 -39 -53 -20 -9 14 21 121 39 139 15 14
16 13 16 -7 0 -15 6 -22 20 -22 15 0 20 7 20 24 0 29 -30 42 -60 26 -14 -7
-26 -8 -39 0 -21 11 -28 11 -51 3z"/>
<path d="M2711 4064 c-21 -27 -28 -54 -13 -54 4 0 13 14 19 30 6 17 16 30 22
30 15 0 14 -9 -4 -60 -28 -80 -10 -126 47 -118 l28 5 -18 -31 c-10 -17 -27
-32 -39 -34 -17 -3 -20 1 -16 22 4 22 2 26 -16 26 -18 0 -22 -5 -19 -26 4 -33
27 -49 60 -41 51 13 69 39 99 146 34 123 34 121 11 121 -15 0 -22 -15 -36 -73
-18 -79 -29 -97 -59 -97 -21 0 -21 -4 -1 124 5 27 2 41 -7 47 -23 14 -36 10
-58 -17z"/>
<path d="M579 4021 c-21 -17 -24 -28 -24 -84 0 -75 20 -107 67 -107 48 0 68
30 68 105 0 52 -4 69 -20 85 -25 25 -61 26 -91 1z m70 -15 c7 -9 11 -39 9 -77
-3 -65 -19 -88 -52 -76 -13 5 -16 21 -16 80 0 41 3 77 7 80 11 12 40 8 52 -7z"/>
<path d="M1168 4027 c-33 -13 -37 -27 -8 -27 18 0 20 -7 20 -70 0 -64 -2 -72
-22 -80 -18 -7 -9 -9 37 -9 46 0 55 2 38 9 -22 9 -23 15 -23 100 0 49 -3 90
-7 89 -5 -1 -20 -6 -35 -12z"/>
<path d="M2368 4027 c-33 -13 -37 -27 -8 -27 18 0 20 -7 20 -70 0 -64 -2 -72
-22 -80 -18 -7 -9 -9 37 -9 46 0 55 2 38 9 -22 9 -23 15 -23 100 0 49 -3 90
-7 89 -5 -1 -20 -6 -35 -12z"/>
<path d="M2938 4027 c-33 -13 -37 -27 -8 -27 18 0 20 -7 20 -70 0 -64 -2 -72
-22 -80 -18 -7 -9 -9 37 -9 46 0 55 2 38 9 -22 9 -23 15 -23 100 0 49 -3 90
-7 89 -5 -1 -20 -6 -35 -12z"/>
<path d="M754 3935 c-7 -18 3 -35 22 -35 18 0 18 -21 -1 -46 -17 -22 -19 -34
-5 -34 13 0 40 54 40 83 0 40 -44 65 -56 32z"/>
<path d="M2524 3935 c-7 -18 3 -35 22 -35 18 0 18 -21 -1 -46 -17 -22 -19 -34
-5 -34 13 0 40 54 40 83 0 40 -44 65 -56 32z"/>
<path d="M755 3738 c-31 -18 -44 -40 -45 -76 0 -35 36 -82 65 -82 13 0 15
-143 15 -1389 0 -1389 0 -1390 -20 -1396 -60 -19 -80 -96 -35 -140 63 -64 173
10 136 91 -10 24 51 130 831 1430 826 1376 844 1404 874 1404 59 0 101 69 73
119 -32 56 -96 65 -139 19 -23 -25 -26 -75 -6 -103 13 -19 -34 -100 -579
-1008 -326 -543 -595 -990 -598 -993 -3 -3 -29 7 -59 22 -103 52 -258 95 -400
109 l-58 6 0 913 0 913 24 12 c51 28 59 89 17 132 -31 30 -63 36 -96 17z m201
-2033 c133 -23 347 -102 346 -128 0 -19 -468 -787 -477 -784 -6 2 -11 167 -13
465 l-2 462 29 0 c15 0 68 -7 117 -15z"/>
<path d="M3458 2344 c-5 -4 -8 -33 -8 -65 l0 -58 -62 -3 c-38 -2 -63 -8 -66
-15 -3 -10 14 -13 62 -13 l66 0 0 -65 c0 -37 4 -65 10 -65 6 0 10 28 10 65 l0
65 65 0 c51 0 65 3 65 15 0 12 -14 15 -65 15 l-64 0 -3 66 c-2 36 -6 62 -10
58z"/>
<path d="M1861 2264 c-21 -27 -28 -54 -13 -54 4 0 13 14 19 30 6 17 16 30 22
30 15 0 14 -9 -4 -60 -28 -80 -10 -126 47 -118 l28 5 -18 -31 c-10 -17 -27
-32 -39 -34 -17 -3 -20 1 -16 22 4 22 2 26 -16 26 -18 0 -22 -5 -19 -26 4 -33
27 -49 60 -41 51 13 69 39 99 146 34 123 34 121 11 121 -15 0 -22 -15 -36 -73
-18 -79 -29 -97 -59 -97 -21 0 -21 -4 -1 124 5 27 2 41 -7 47 -23 14 -36 10
-58 -17z"/>
<path d="M2626 2268 c-18 -25 -21 -58 -6 -58 6 0 10 8 10 19 0 10 7 24 15 31
20 16 20 -6 0 -80 -19 -70 -19 -90 0 -90 8 0 18 17 25 43 20 81 36 112 63 127
41 23 48 2 26 -83 -17 -68 -14 -97 9 -83 6 4 16 32 23 63 19 82 78 143 95 98
3 -8 -2 -40 -12 -71 -19 -62 -13 -87 24 -92 24 -4 56 38 49 65 -3 15 -6 13
-15 -9 -11 -26 -29 -44 -38 -36 -2 3 3 24 11 48 24 67 20 108 -11 122 -21 10
-31 9 -56 -5 -26 -15 -31 -15 -44 -2 -19 18 -41 19 -74 2 -22 -11 -28 -11 -38
0 -19 19 -39 16 -56 -9z"/>
<path d="M3040 2283 c-19 -7 -49 -44 -50 -60 0 -20 18 -15 25 7 9 27 43 46 58
31 8 -8 5 -30 -9 -78 -19 -65 -44 -96 -44 -53 0 29 -34 23 -38 -7 -3 -17 3
-24 22 -29 15 -3 32 -1 40 6 11 8 20 8 35 1 11 -6 27 -11 36 -11 20 0 65 44
65 65 0 24 -13 18 -32 -15 -17 -30 -41 -39 -53 -20 -9 14 21 121 39 139 15 14
16 13 16 -7 0 -15 6 -22 20 -22 15 0 20 7 20 24 0 29 -30 42 -60 26 -14 -7
-26 -8 -39 0 -21 11 -28 11 -51 3z"/>
<path d="M3736 2268 c-17 -24 -21 -58 -8 -58 4 0 14 15 21 33 24 58 25 2 1
-96 -16 -63 -29 -97 -44 -109 -21 -17 -20 -18 32 -18 28 0 52 5 52 10 0 6 -7
10 -16 10 -11 0 -14 5 -10 16 3 9 6 22 6 29 0 10 9 12 33 8 94 -15 157 150 73
189 -20 8 -30 8 -48 -4 -20 -13 -25 -13 -36 -2 -19 20 -39 17 -56 -8z m139
-18 c8 -25 -11 -92 -34 -121 -22 -27 -51 -20 -51 13 0 82 66 167 85 108z"/>
<path d="M2187 2253 c-19 -19 5 -23 133 -23 118 0 140 2 140 15 0 13 -21 15
-133 15 -74 0 -137 -3 -140 -7z"/>
<path d="M2187 2174 c-19 -20 5 -24 134 -24 108 0 140 3 137 13 -5 13 -258 24
-271 11z"/>
<path d="M1085 2131 c-65 -27 -121 -178 -95 -256 14 -43 48 -55 85 -31 40 26
77 111 83 187 4 58 2 69 -17 88 -23 23 -26 24 -56 12z m40 -33 c3 -13 2 -41
-2 -63 -8 -37 -11 -40 -46 -43 -22 -2 -37 1 -37 8 0 18 30 83 47 102 21 24 31
23 38 -4z m-27 -162 c-14 -45 -51 -91 -66 -82 -13 8 -16 73 -6 100 4 11 19 16
44 16 l38 0 -10 -34z"/>
<path d="M233 517 c-40 -46 -57 -111 -51 -201 5 -74 33 -143 73 -176 27 -22
28 -4 1 37 -64 98 -60 256 10 351 26 34 0 26 -33 -11z"/>
<path d="M1344 513 c38 -60 49 -108 44 -194 -4 -66 -10 -86 -37 -130 -17 -28
-29 -54 -26 -57 10 -10 45 32 71 85 24 48 26 62 22 141 -4 89 -17 127 -58 170
-33 35 -43 26 -16 -15z"/>
<path d="M370 423 c-19 -7 -49 -44 -50 -60 0 -20 18 -15 25 7 9 27 43 46 58
31 8 -8 5 -30 -9 -78 -19 -65 -44 -96 -44 -53 0 29 -34 23 -38 -7 -3 -17 3
-24 22 -29 15 -3 32 -1 40 6 11 8 20 8 35 1 11 -6 27 -11 36 -11 20 0 65 44
65 65 0 24 -13 18 -32 -15 -17 -30 -41 -39 -53 -20 -9 14 21 121 39 139 15 14
16 13 16 -7 0 -15 6 -22 20 -22 15 0 20 7 20 24 0 29 -30 42 -60 26 -14 -7
-26 -8 -39 0 -21 11 -28 11 -51 3z"/>
<path d="M941 404 c-21 -27 -28 -54 -13 -54 4 0 13 14 19 30 6 17 16 30 22 30
15 0 14 -9 -4 -60 -28 -80 -10 -126 47 -118 l28 5 -18 -31 c-10 -17 -27 -32
-39 -34 -17 -3 -20 1 -16 22 4 22 2 26 -16 26 -18 0 -22 -5 -19 -26 4 -33 27
-49 60 -41 51 13 69 39 99 146 34 123 34 121 11 121 -15 0 -22 -15 -36 -73
-18 -79 -29 -97 -59 -97 -21 0 -21 -4 -1 124 5 27 2 41 -7 47 -23 14 -36 10
-58 -17z"/>
<path d="M579 361 c-21 -17 -24 -28 -24 -84 0 -75 20 -107 67 -107 48 0 68 30
68 105 0 52 -4 69 -20 85 -25 25 -61 26 -91 1z m70 -15 c7 -9 11 -39 9 -77 -3
-65 -19 -88 -52 -76 -13 5 -16 21 -16 80 0 41 3 77 7 80 11 12 40 8 52 -7z"/>
<path d="M1149 361 c-21 -17 -24 -28 -24 -84 0 -75 20 -107 67 -107 48 0 68
30 68 105 0 52 -4 69 -20 85 -25 25 -61 26 -91 1z m70 -15 c7 -9 11 -39 9 -77
-3 -65 -19 -88 -52 -76 -13 5 -16 21 -16 80 0 41 3 77 7 80 11 12 40 8 52 -7z"/>
<path d="M754 275 c-7 -18 3 -35 22 -35 18 0 18 -21 -1 -46 -17 -22 -19 -34
-5 -34 13 0 40 54 40 83 0 40 -44 65 -56 32z"/>
</g>
</svg>
