<?xml version="1.0" standalone="no"?>
<!DOCTYPE svg PUBLIC "-//W3C//DTD SVG 20010904//EN"
 "http://www.w3.org/TR/2001/REC-SVG-20010904/DTD/svg10.dtd">
<svg version="1.0" xmlns="http://www.w3.org/2000/svg"
 width="235.000000pt" height="465.000000pt" viewBox="0 0 235.000000 465.000000"
 preserveAspectRatio="xMidYMid meet">
<metadata>
Created by potrace 1.16, written by Peter Selinger 2001-2019
</metadata>
<g transform="translate(0.000000,465.000000) scale(1.000000,-1.000000)"
fill="transparent" stroke="black">
<path d="M0 350 l0 -115 4 0 c4 0 6 -1 6 -5 0 -2 1 -4 2 -5 2 -1 3 -3 3 -5 0
-5 1 -5 21 -5 18 0 19 0 19 2 1 2 4 3 5 0 0 -1 1 -2 2 -3 2 0 3 -2 3 -3 0 -6
1 -6 17 -6 l16 0 7 7 c5 6 8 8 10 8 3 0 5 2 5 5 0 2 2 5 7 10 6 5 8 8 8 10 0
2 1 4 3 5 2 2 2 3 2 7 0 6 1 8 5 8 2 0 4 1 5 2 2 2 3 3 6 3 l4 0 0 6 c0 6 0 7
-2 9 -2 1 -3 3 -3 5 0 1 -1 3 -2 5 -3 3 -2 5 2 5 3 0 5 -2 5 -5 0 -4 2 -5 9
-5 5 0 6 0 6 2 1 3 4 3 5 0 0 -2 1 -2 7 -2 6 0 7 -1 7 -3 1 -2 2 -2 8 -2 6 0
7 -1 7 -3 1 -1 2 -2 5 -2 4 0 5 -1 5 -3 1 -1 2 -2 5 -2 3 0 4 -1 6 -2 5 -6 5
-10 5 95 l0 97 -117 0 -118 0 0 -115z"/>
<path d="M174 288 c0 -2 -2 -3 -4 -3 -4 0 -5 -2 -5 -8 0 -5 -1 -6 -3 -6 -1 -1
-2 -2 -2 -3 0 -2 -8 -8 -10 -8 -4 0 -5 -2 -5 -8 0 -4 0 -5 -2 -7 -2 -1 -3 -3
-3 -5 0 -2 -1 -4 -2 -5 -2 -1 -3 -3 -3 -4 0 0 -1 -1 -1 -1 -2 0 -8 -6 -8 -8 0
0 2 -3 5 -5 3 -4 4 -5 4 -8 0 -3 0 -4 2 -4 1 -1 2 -2 3 -3 0 -2 1 -2 4 -2 5 0
6 -2 3 -5 -2 -2 -2 -4 -2 -13 0 -12 0 -12 -8 -12 -5 0 -5 1 -5 3 0 1 0 2 3 2
5 0 5 1 5 14 0 10 0 11 -2 11 -1 1 -2 2 -3 3 0 1 -1 2 -3 2 -1 0 -2 1 -2 1 0
3 -7 9 -10 9 -2 0 -4 -2 -9 -6 l-6 -7 0 -7 c0 -7 0 -8 2 -10 2 -1 3 -3 3 -5 0
-3 2 -5 5 -5 4 0 5 2 5 6 0 3 -1 4 -2 5 -2 0 -2 1 -2 7 0 5 0 6 2 6 1 1 2 2 3
3 1 3 9 4 9 2 0 -3 -2 -4 -6 -4 l-4 0 0 -7 c0 -7 0 -8 2 -9 2 0 3 -1 3 -6 0
-5 0 -6 -2 -8 -3 -2 -3 -3 -3 -11 0 -8 0 -9 2 -10 2 0 3 -1 3 -5 0 -3 1 -4 2
-5 3 -1 4 -7 1 -7 -2 0 -3 0 -3 4 0 3 -1 4 -2 5 -2 0 -3 1 -3 5 0 3 0 4 -2 4
-2 0 -3 -1 -3 -2 -1 -1 -2 -2 -2 -2 -3 0 -2 3 0 4 2 0 2 1 2 9 0 10 -1 12 -5
8 -2 -1 -3 -2 -4 -2 0 0 -1 -2 -1 -4 0 -4 -1 -4 -2 -4 -4 0 -3 6 0 7 2 1 2 2
2 8 0 5 0 6 -3 8 -2 2 -2 3 -2 10 0 5 0 8 -1 9 -1 1 -7 1 -19 1 -12 0 -18 0
-19 1 0 1 -1 4 -1 8 0 6 0 6 -2 6 -2 0 -3 -1 -4 -2 0 -2 -1 -3 -11 -3 -9 0
-11 0 -13 -2 -2 -3 -3 -3 -5 0 -2 2 -4 2 -7 2 -6 0 -8 1 -8 5 0 2 -1 4 -3 5
-1 1 -2 3 -2 5 0 3 -2 5 -4 5 -1 0 -1 -6 -1 -27 l0 -28 2 -1 c2 0 3 -2 3 -4 0
-2 2 -4 5 -8 3 -3 5 -5 5 -7 0 -2 2 -4 5 -8 5 -4 5 -5 5 -10 0 -5 -1 -6 -3 -6
-2 -1 -2 -2 -2 -11 0 -9 0 -10 2 -11 2 0 3 -1 3 -7 0 -6 0 -7 2 -8 2 0 3 -1 3
-7 0 -6 0 -7 2 -8 2 0 3 -1 3 -9 0 -7 0 -8 3 -10 1 -1 2 -3 2 -5 0 -1 1 -4 2
-4 3 -3 3 -4 0 -6 -3 -3 -3 -4 0 -6 2 0 3 -1 3 -7 0 -6 0 -7 2 -8 2 0 3 -1 3
-5 0 -3 1 -4 2 -5 2 0 3 -1 3 -7 l0 -7 90 0 90 0 0 127 0 128 -2 1 c-2 0 -3 2
-3 4 0 2 -2 4 -5 8 -3 2 -5 5 -5 6 0 0 -2 1 -4 1 -4 0 -5 1 -5 3 -1 2 -2 2 -8
2 -6 0 -7 1 -7 3 -1 2 -2 2 -8 2 -6 0 -7 1 -7 3 -1 1 -2 2 -3 2 -2 0 -3 -1 -4
-2z m-30 -59 c1 -1 1 -5 1 -10 l0 -9 9 0 c7 0 9 0 11 2 3 3 5 2 5 -2 0 -2 1
-4 3 -5 1 -1 2 -3 2 -4 0 -2 2 -1 5 2 3 3 7 3 10 0 2 -3 3 -3 13 -3 10 0 11
-1 11 -3 1 -1 2 -2 3 -3 3 -1 3 -7 1 -7 -2 0 -3 0 -3 4 l0 4 -19 0 c-19 0 -20
1 -20 3 -1 1 -2 2 -5 2 -3 0 -4 1 -6 2 -2 3 -3 3 -10 3 -7 0 -9 1 -9 3 -1 1
-2 2 -3 3 -2 0 -3 2 -3 6 0 5 -1 6 -3 8 -3 3 -3 5 2 5 2 0 4 -1 5 -1z"/>
<path d="M0 83 l0 -78 2 0 c1 -1 2 -2 3 -3 0 -2 1 -2 23 -2 l22 0 0 7 c0 7 0
8 -2 9 -2 0 -3 1 -3 5 0 3 -1 4 -2 5 -2 0 -3 1 -3 7 0 6 0 7 -2 8 -2 0 -3 1
-3 6 0 5 -1 6 -3 8 -2 2 -2 3 -2 13 0 11 0 12 -2 13 -2 0 -3 1 -3 7 0 6 0 7
-2 8 -2 0 -3 1 -3 7 0 6 0 7 -2 8 -2 0 -2 1 -2 9 0 8 0 9 2 9 1 1 2 2 2 5 0 3
-1 4 -5 9 -3 3 -5 5 -5 7 0 3 -6 10 -9 10 -1 0 -1 -18 -1 -77z"/>
</g>
</svg>
